<svg clip-rule="evenodd" fill-rule="evenodd" stroke-linejoin="round" stroke-miterlimit="2" viewBox="0 0 24 24" xmlns="http://www.w3.org/2000/svg" xmlns:serif="http://www.serif.com/">
	<g fill="currentColor">
		<path id="path2" d="m9.172 4c.412-1.165 1.523-2 2.829-2 1.305 0 2.416.835 2.828 2h2.672c.663 0 1.297.263 1.766.732.47.469.734 1.105.734 1.768v13c0 1.381-1.121 2.5-2.5 2.5h-11.001c-1.381 0-2.5-1.119-2.5-2.5v-13c0-.663.263-1.299.732-1.768s1.105-.732 1.768-.732zm3.829 14h2c.551 0 1-.448 1-1s-.449-1-1-1h-2c-.552 0-1 .448-1 1s.448 1 1 1zm-4-4h6c.551 0 1-.448 1-1s-.449-1-1-1h-6c-.552 0-1 .448-1 1s.448 1 1 1zm0-4h6c.551 0 1-.448 1-1s-.449-1-1-1h-6c-.552 0-1 .448-1 1s.448 1 1 1z"/>
	</g>
</svg>