<svg id="Layer_1" viewBox="0 0 32 32" xmlns="http://www.w3.org/2000/svg" data-name="Layer 1">
  <path fill="currentColor" d="m19 19.5 5.74-5.66a1.07 1.07 0 0 0 -.74-1.84h-3.2a1.07 1.07 0 0 0 0 2.13h.61l-3.89 3.87-3.67-3.41a2.1 2.1 0 0 0 -1.55-.59 2.15 2.15 0 0 0 -1.49.71l-3.3 3.64a1.07 1.07 0 0 0 1.59 1.42l3.3-3.64 3.67 3.41a2.13 2.13 0 0 0 2.93-.04z"/>
  <path fill="currentColor" d="m30.44 1.56a5.29 5.29 0 0 0 -3.77-1.56h-21.34a5.33 5.33 0 0 0 -5.33 5.33v21.34a5.33 5.33 0 0 0 5.33 5.33h21.34a5.33 5.33 0 0 0 5.33-5.33v-21.34a5.29 5.29 0 0 0 -1.56-3.77zm-.57 25.1a3.2 3.2 0 0 1 -3.2 3.2h-21.34a3.2 3.2 0 0 1 -3.2-3.2v-21.33a3.2 3.2 0 0 1 3.2-3.2h21.34a3.2 3.2 0 0 1 3.2 3.2z"/>
  <path fill="currentColor" d="m7.47 6.91h3.2a1.07 1.07 0 0 0 0-2.13h-3.2a1.07 1.07 0 1 0 0 2.13z"/>
  <path fill="currentColor" d="m9.6 23.47h-2.13a1.07 1.07 0 1 0 0 2.13h2.13a1.07 1.07 0 1 0 0-2.13z"/>
  <path fill="currentColor" d="m24.53 23.47h-10.66a1.07 1.07 0 1 0 0 2.13h10.66a1.07 1.07 0 1 0 0-2.13z"/>
</svg>