<svg viewBox="0 0 24 24" xmlns="http://www.w3.org/2000/svg">
	<g id="Layer_2" data-name="Layer 2" fill="currentColor">
		<path d="m5 22.25a3.26 3.26 0 0 1 -3.25-3.25v-16a1.25 1.25 0 0 1 2.5 0v16a.76.76 0 0 0 .75.75h16a1.25 1.25 0 0 1 0 2.5z"/><path d="m7 16.25a1.29 1.29 0 0 1 -.78-.25 1.25 1.25 0 0 1 -.22-1.78l2.63-3.22a3.24 3.24 0 0 1 2.37-1.25h.16a3.2 3.2 0 0 1 2.31.95.79.79 0 0 0 .54.22.75.75 0 0 0 .53-.22l3.59-3.58a1.24 1.24 0 1 1 1.76 1.76l-3.59 3.59a3.26 3.26 0 0 1 -4.6 0 .73.73 0 0 0 -.54-.22.76.76 0 0 0 -.58.28l-2.58 3.25a1.25 1.25 0 0 1 -1 .47z"/>
	</g>
</svg>