<svg id="Layer_1" enable-background="new 0 0 512 512" viewBox="0 0 512 512" xmlns="http://www.w3.org/2000/svg">
	<g id="_x34_9.List" fill="currentColor">
		<path d="m491 134.75h-313.75c-8.284 0-15-6.716-15-15v-40c0-8.284 6.716-15 15-15h313.75c8.284 0 15 6.716 15 15v40c0 8.284-6.716 15-15 15z"/><path d="m491 291h-313.75c-8.284 0-15-6.716-15-15v-40c0-8.284 6.716-15 15-15h313.75c8.284 0 15 6.716 15 15v40c0 8.284-6.716 15-15 15z"/><path d="m491 447.25h-313.75c-8.284 0-15-6.716-15-15v-40c0-8.284 6.716-15 15-15h313.75c8.284 0 15 6.716 15 15v40c0 8.284-6.716 15-15 15z"/><path d="m52.875 209.125c-25.888 0-46.875 20.987-46.875 46.875 0 25.888 20.987 46.875 46.875 46.875 25.888 0 46.875-20.987 46.875-46.875 0-25.888-20.987-46.875-46.875-46.875z"/><path d="m52.875 365.375c-25.888 0-46.875 20.987-46.875 46.875 0 25.888 20.987 46.875 46.875 46.875 25.888 0 46.875-20.987 46.875-46.875 0-25.888-20.987-46.875-46.875-46.875z"/><path d="m52.875 52.875c-25.888 0-46.875 20.987-46.875 46.875 0 25.888 20.987 46.875 46.875 46.875 25.888 0 46.875-20.987 46.875-46.875 0-25.888-20.987-46.875-46.875-46.875z"/>
	</g>
</svg>