<svg id="Layer_1" viewBox="0 0 64 64" xmlns="http://www.w3.org/2000/svg" data-name="Layer 1">
	<g fill="currentColor">
		<path d="m47.23 54.12a1 1 0 0 1 -.04 1.41 27.393 27.393 0 1 1 -18.8-47.32 1 1 0 0 1 1 1v26z"/>
		<path d="m33.58 28.4-.13-26.4a1.052 1.052 0 0 1 .29-.71 1.052 1.052 0 0 1 .71-.29h.13a27.425 27.425 0 0 1 27.39 27.39 1 1 0 0 1 -1 1h-26.39a.994.994 0 0 1 -1-.99z"/>
		<path d="m63 34.58a27.1 27.1 0 0 1 -8.6 19.92.27.27 0 0 1 -.08.07c-.02.03-.05.05-.07.08a1 1 0 0 1 -.68.27 1.024 1.024 0 0 1 -.74-.32l-17.96-19.34a1 1 0 0 1 .74-1.68h26.39a1 1 0 0 1 1 1z"/>
	</g>
</svg>