<svg fill="none" viewBox="0 0 24 24" xmlns="http://www.w3.org/2000/svg">
	<g fill="currentColor">
		<path clip-rule="evenodd" d="m19 8c1.6569 0 3-1.34315 3-3s-1.3431-3-3-3-3 1.34315-3 3 1.3431 3 3 3zm-16-3h11c0 2.25378 1.4912 4.15928 3.5407 4.7837l-4.4265 1.7706c-.7153.2861-1.5131.2861-2.2284 0l-8.25719-3.30286c-.37966-.15186-.62861-.51957-.62861-.92847v-1.32297c0-.55228.44772-1 1-1zm7.8858 8.5543-8.8858-3.5543v8c0 .5523.44772 1 1 1h18c.5523 0 1-.4477 1-1v-8l-8.8858 3.5543c-.7153.2861-1.5131.2861-2.2284 0z" fill-rule="evenodd"/>
	</g>
</svg>