<svg id="Layer" viewBox="0 0 24 24" xmlns="http://www.w3.org/2000/svg">
	<g fill="currentColor">
		<path id="users-group-slash" d="m18.75 18.35a2.856 2.856 0 0 1 -3.18 3.15h-7.14a4 4 0 0 1 -1.08-.13c-.07-.02-.3-.074-.3-.3a.258.258 0 0 1 .09-.21l7.31-7.31a.332.332 0 0 1 .27-.09 4.607 4.607 0 0 1 4.03 4.89zm.457-9.4a.323.323 0 0 0 -.248.092l-2.78 2.78a.3.3 0 0 0 .125.494 5.5 5.5 0 0 1 3.066 2.574.3.3 0 0 0 .28.18h.42a2.186 2.186 0 0 0 2.43-2.42 3.47 3.47 0 0 0 -3.293-3.701zm-15.277 6.12h.42a.3.3 0 0 0 .28-.18 5.612 5.612 0 0 1 3.73-2.78.3.3 0 0 0 .16-.5 4.886 4.886 0 0 1 -1.41-2.45.3.3 0 0 0 -.29-.23h-1.61a3.493 3.493 0 0 0 -3.71 3.72 2.186 2.186 0 0 0 2.43 2.42zm2.56-7.22c.074 0 .147 0 .218-.01a.31.31 0 0 0 .207-.087.258.258 0 0 0 .078-.171 4.906 4.906 0 0 1 1.739-3.371.254.254 0 0 0 .105-.153.272.272 0 0 0 -.021-.2 2.673 2.673 0 1 0 -2.326 3.992zm16.04-6.38a.749.749 0 0 0 -1.06 0l-1.95 1.949a2.668 2.668 0 0 0 -4.34.441.346.346 0 0 0 -.02.2.308.308 0 0 0 .11.15 4.974 4.974 0 0 1 1.437 2.023l-1.232 1.232a3.512 3.512 0 1 0 -3.993 3.992l-1.97 1.97a4.518 4.518 0 0 0 -4.212 4.217l-3.83 3.826a.75.75 0 1 0 1.06 1.06l20-20a.749.749 0 0 0 0-1.06z"/>
	</g>
</svg>